<svg width="24" height="24" viewBox="0 0 24 24" fill="none" xmlns="http://www.w3.org/2000/svg">
<circle cx="12" cy="12" r="12" fill="#FFC93D"/>
<g clip-path="url(#clip0_519_14195)" filter="url(#filter0_d_519_14195)">
<path d="M11.8005 9.45852C11.206 9.13815 10.9566 8.63314 11.0738 8.0224C11.1728 7.50282 11.5858 7.11722 12.0482 7.11139C12.5151 7.10557 12.9399 7.49875 13.039 8.02677C13.1527 8.63518 12.9095 9.12505 12.3125 9.46056C12.4923 10.3392 12.7046 11.2095 13.2671 11.8761C13.819 12.5303 14.4997 12.4758 15.0905 11.7771C15.4437 11.3595 15.6926 10.8644 15.8962 10.3151C15.8516 10.2696 15.8073 10.2277 15.765 10.1811C15.6337 10.0437 15.5447 9.85909 15.5118 9.65605C15.4789 9.45302 15.504 9.2429 15.5831 9.05835C15.7419 8.68644 16.0964 8.47587 16.4372 8.5513C16.8088 8.63314 17.0773 8.97651 17.1077 9.40668C17.1375 9.82432 16.9232 10.2376 16.5789 10.3625C16.4278 10.4173 16.3785 10.5006 16.351 10.6748C16.1219 12.1176 15.8831 13.5581 15.6466 14.9994C15.6366 15.0591 15.6186 15.1159 15.6005 15.1914H15.4008C13.1697 15.1914 10.9386 15.1929 8.70749 15.196C8.54301 15.196 8.48456 15.143 8.45458 14.9508C8.22571 13.5001 7.98395 12.0523 7.75087 10.6022C7.72907 10.4654 7.6721 10.417 7.56633 10.3783C7.38505 10.314 7.2292 10.1758 7.12677 9.98853C7.02435 9.80127 6.98207 9.57721 7.00752 9.35659C7.03512 9.13628 7.12665 8.93397 7.26659 8.78392C7.40653 8.63387 7.58628 8.54531 7.77539 8.53324C8.15437 8.50703 8.50264 8.82449 8.59503 9.27999C8.66934 9.64492 8.56853 9.92713 8.21902 10.32C8.46524 10.9899 8.77957 11.6067 9.29825 12.0445C9.84938 12.5105 10.4741 12.401 10.9316 11.7754C11.3227 11.2406 11.5308 10.6011 11.6975 9.93791C11.7364 9.78355 11.7648 9.6254 11.8005 9.45852Z" fill="white"/>
<path d="M12.055 15.6674C13.1201 15.6674 14.1872 15.665 15.2533 15.6674C15.6586 15.6691 15.9201 15.995 15.8907 16.4435C15.8805 16.595 15.828 16.7382 15.7414 16.8509C15.6548 16.9636 15.539 17.0395 15.4119 17.0668C15.3077 17.0844 15.2025 17.092 15.0973 17.0895C13.0706 17.0907 11.0438 17.0907 9.017 17.0895C8.94467 17.0895 8.87184 17.0895 8.80001 17.0828C8.44357 17.0447 8.21123 16.7514 8.2194 16.3527C8.22733 15.9595 8.47998 15.672 8.83716 15.6677C9.36353 15.6613 9.89014 15.6653 10.4165 15.6653L12.055 15.6674Z" fill="white"/>
</g>
<defs>
<filter id="filter0_d_519_14195" x="4.99998" y="7" width="14.1111" height="14.0918" filterUnits="userSpaceOnUse" color-interpolation-filters="sRGB">
<feFlood flood-opacity="0" result="BackgroundImageFix"/>
<feColorMatrix in="SourceAlpha" type="matrix" values="0 0 0 0 0 0 0 0 0 0 0 0 0 0 0 0 0 0 127 0" result="hardAlpha"/>
<feOffset dy="2"/>
<feGaussianBlur stdDeviation="1"/>
<feComposite in2="hardAlpha" operator="out"/>
<feColorMatrix type="matrix" values="0 0 0 0 0 0 0 0 0 0 0 0 0 0 0 0 0 0 0.15 0"/>
<feBlend mode="normal" in2="BackgroundImageFix" result="effect1_dropShadow_519_14195"/>
<feBlend mode="normal" in="SourceGraphic" in2="effect1_dropShadow_519_14195" result="shape"/>
</filter>
<clipPath id="clip0_519_14195">
<rect width="10.1111" height="10.0921" fill="white" transform="translate(6.99998 7)"/>
</clipPath>
</defs>
</svg>
